<svg width="46" height="61" viewBox="0 0 46 61" fill="none" xmlns="http://www.w3.org/2000/svg">
<path d="M17.5943 0.757208C7.73634 3.27354 0.851562 12.1455 0.851562 22.3321C0.851562 28.6589 3.51163 34.6203 8.18129 38.8423L1.12119 51.2848C0.894135 51.6853 0.922516 52.1815 1.19351 52.5532C1.46451 52.9254 1.92777 53.1044 2.37866 53.0106L10.3964 51.3457L13.2144 59.2865C13.3673 59.7186 13.7587 60.0212 14.2155 60.062C14.6724 60.1027 15.1105 59.8724 15.3371 59.4737L23.1172 45.7957L30.8969 59.4737C31.1066 59.8422 31.4966 60.0661 31.915 60.0661C31.9493 60.0661 31.9841 60.0647 32.0185 60.062C32.4753 60.0212 32.8667 59.7182 33.02 59.2865L35.8376 51.3457L43.8553 53.0106C44.3058 53.1039 44.7695 52.925 45.0405 52.5532C45.3119 52.1815 45.3399 51.6853 45.1128 51.2848L38.0527 38.8423C42.7224 34.6203 45.3824 28.6589 45.3824 22.3321C45.3824 12.1455 38.4977 3.27354 28.6402 0.757208C28.0126 0.59699 27.3749 0.975561 27.2147 1.6027C27.0545 2.22984 27.433 2.86796 28.0602 3.02818C36.8795 5.27946 43.0391 13.2176 43.0391 22.3321C43.0391 33.4251 34.0299 42.254 23.1172 42.254C12.1968 42.254 3.19532 33.4178 3.19532 22.3321C3.19532 13.2176 9.35454 5.27946 18.1738 3.02818C18.801 2.86796 19.1795 2.22984 19.0198 1.6027C18.8596 0.975561 18.2219 0.59699 17.5943 0.757208ZM14.5666 56.0886L12.2636 49.5988C12.0677 49.0468 11.4946 48.724 10.921 48.8431L4.43769 50.1894L10.0252 40.3419C13.2831 42.7104 17.1407 44.1533 21.152 44.5103L14.5666 56.0886ZM35.313 48.8431C34.7399 48.724 34.1663 49.0468 33.9704 49.5988L31.6678 56.0886L25.082 44.5103C29.0938 44.1533 32.9509 42.7104 36.2093 40.3419L41.7968 50.1894L35.313 48.8431Z" fill="black"/>
</svg>
